<svg display="none" xmlns="http://www.w3.org/2000/svg">
    <symbol id="facebook" viewBox="0 0 470.513 470.513">
        <g>
            <path d="M271.521,154.17v-40.541c0-6.086,0.28-10.8,0.849-14.13c0.567-3.335,1.857-6.615,3.859-9.853
		c1.999-3.236,5.236-5.47,9.706-6.708c4.476-1.24,10.424-1.858,17.85-1.858h40.539V0h-64.809c-37.5,0-64.433,8.897-80.803,26.691
		c-16.368,17.798-24.551,44.014-24.551,78.658v48.82h-48.542v81.086h48.539v235.256h97.362V235.256h64.805l8.566-81.086H271.521z"/>
        </g>
    </symbol>

    <symbol id="youtube" viewBox="0 0 90.677 90.677">
        <g>
            <path d="M82.287,45.907c-0.937-4.071-4.267-7.074-8.275-7.521c-9.489-1.06-19.098-1.065-28.66-1.06
			c-9.566-0.005-19.173,0-28.665,1.06c-4.006,0.448-7.334,3.451-8.27,7.521c-1.334,5.797-1.35,12.125-1.35,18.094
			c0,5.969,0,12.296,1.334,18.093c0.936,4.07,4.264,7.073,8.272,7.521c9.49,1.061,19.097,1.065,28.662,1.061
			c9.566,0.005,19.171,0,28.664-1.061c4.006-0.448,7.336-3.451,8.272-7.521c1.333-5.797,1.34-12.124,1.34-18.093
			C83.61,58.031,83.62,51.704,82.287,45.907z M28.9,50.4h-5.54v29.438h-5.146V50.4h-5.439v-4.822H28.9V50.4z M42.877,79.839h-4.629
			v-2.785c-1.839,2.108-3.585,3.136-5.286,3.136c-1.491,0-2.517-0.604-2.98-1.897c-0.252-0.772-0.408-1.994-0.408-3.796V54.311
			h4.625v18.795c0,1.084,0,1.647,0.042,1.799c0.111,0.718,0.462,1.082,1.082,1.082c0.928,0,1.898-0.715,2.924-2.166v-19.51h4.629
			L42.877,79.839L42.877,79.839z M60.45,72.177c0,2.361-0.159,4.062-0.468,5.144c-0.618,1.899-1.855,2.869-3.695,2.869
			c-1.646,0-3.234-0.914-4.781-2.824v2.474h-4.625V45.578h4.625v11.189c1.494-1.839,3.08-2.769,4.781-2.769
			c1.84,0,3.078,0.969,3.695,2.88c0.311,1.027,0.468,2.715,0.468,5.132V72.177z M77.907,67.918h-9.251v4.525
			c0,2.363,0.773,3.543,2.363,3.543c1.139,0,1.802-0.619,2.066-1.855c0.043-0.251,0.104-1.279,0.104-3.134h4.719v0.675
			c0,1.491-0.057,2.518-0.099,2.98c-0.155,1.024-0.519,1.953-1.08,2.771c-1.281,1.854-3.179,2.768-5.595,2.768
			c-2.42,0-4.262-0.871-5.599-2.614c-0.981-1.278-1.485-3.29-1.485-6.003v-8.941c0-2.729,0.447-4.725,1.43-6.015
			c1.336-1.747,3.177-2.617,5.54-2.617c2.321,0,4.161,0.87,5.457,2.617c0.969,1.29,1.432,3.286,1.432,6.015v5.285H77.907z"/>
            <path d="M70.978,58.163c-1.546,0-2.321,1.181-2.321,3.541v2.362h4.625v-2.362C73.281,59.344,72.508,58.163,70.978,58.163z"/>
            <path d="M53.812,58.163c-0.762,0-1.534,0.36-2.307,1.125v15.559c0.772,0.774,1.545,1.14,2.307,1.14
			c1.334,0,2.012-1.14,2.012-3.445V61.646C55.824,59.344,55.146,58.163,53.812,58.163z"/>
            <path d="M56.396,34.973c1.705,0,3.479-1.036,5.34-3.168v2.814h4.675V8.82h-4.675v19.718c-1.036,1.464-2.018,2.188-2.953,2.188
			c-0.626,0-0.994-0.37-1.096-1.095c-0.057-0.153-0.057-0.722-0.057-1.817V8.82h-4.66v20.4c0,1.822,0.156,3.055,0.414,3.836
			C53.854,34.363,54.891,34.973,56.396,34.973z"/>
            <path d="M23.851,20.598v14.021h5.184V20.598L35.271,0h-5.242l-3.537,13.595L22.812,0h-5.455c1.093,3.209,2.23,6.434,3.323,9.646
			C22.343,14.474,23.381,18.114,23.851,20.598z"/>
            <path d="M42.219,34.973c2.342,0,4.162-0.881,5.453-2.641c0.981-1.291,1.451-3.325,1.451-6.067v-9.034
			c0-2.758-0.469-4.774-1.451-6.077c-1.291-1.765-3.11-2.646-5.453-2.646c-2.33,0-4.149,0.881-5.443,2.646
			c-0.993,1.303-1.463,3.319-1.463,6.077v9.034c0,2.742,0.47,4.776,1.463,6.067C38.069,34.092,39.889,34.973,42.219,34.973z
			 M39.988,16.294c0-2.387,0.724-3.577,2.231-3.577c1.507,0,2.229,1.189,2.229,3.577v10.852c0,2.387-0.722,3.581-2.229,3.581
			c-1.507,0-2.231-1.194-2.231-3.581V16.294z"/>
        </g>
    </symbol>

    <symbol id="vk" viewBox="0 0 304.36 304.36">
        <g>
            <path style="fill-rule:evenodd;clip-rule:evenodd;" d="M261.945,175.576c10.096,9.857,20.752,19.131,29.807,29.982
		c4,4.822,7.787,9.798,10.684,15.394c4.105,7.955,0.387,16.709-6.746,17.184l-44.34-0.02c-11.436,0.949-20.559-3.655-28.23-11.474
		c-6.139-6.253-11.824-12.908-17.727-19.372c-2.42-2.642-4.953-5.128-7.979-7.093c-6.053-3.929-11.307-2.726-14.766,3.587
		c-3.523,6.421-4.322,13.531-4.668,20.687c-0.475,10.441-3.631,13.186-14.119,13.664c-22.414,1.057-43.686-2.334-63.447-13.641
		c-17.422-9.968-30.932-24.04-42.691-39.971C34.828,153.482,17.295,119.395,1.537,84.353C-2.01,76.458,0.584,72.22,9.295,72.07
		c14.465-0.281,28.928-0.261,43.41-0.02c5.879,0.086,9.771,3.458,12.041,9.012c7.826,19.243,17.402,37.551,29.422,54.521
		c3.201,4.518,6.465,9.036,11.113,12.216c5.142,3.521,9.057,2.354,11.476-3.374c1.535-3.632,2.207-7.544,2.553-11.434
		c1.146-13.383,1.297-26.743-0.713-40.079c-1.234-8.323-5.922-13.711-14.227-15.286c-4.238-0.803-3.607-2.38-1.555-4.799
		c3.564-4.172,6.916-6.769,13.598-6.769h50.111c7.889,1.557,9.641,5.101,10.721,13.039l0.043,55.663
		c-0.086,3.073,1.535,12.192,7.07,14.226c4.43,1.448,7.35-2.096,10.008-4.905c11.998-12.734,20.561-27.783,28.211-43.366
		c3.395-6.852,6.314-13.968,9.143-21.078c2.096-5.276,5.385-7.872,11.328-7.757l48.229,0.043c1.43,0,2.877,0.021,4.262,0.258
		c8.127,1.385,10.354,4.881,7.844,12.817c-3.955,12.451-11.65,22.827-19.174,33.251c-8.043,11.129-16.645,21.877-24.621,33.072
		C252.26,161.544,252.842,166.697,261.945,175.576L261.945,175.576z M261.945,175.576"/>
        </g>
    </symbol>

    <symbol id="linkedin" viewBox="0 0 310 310">
        <g>
            <path d="M72.16,99.73H9.927c-2.762,0-5,2.239-5,5v199.928c0,2.762,2.238,5,5,5H72.16c2.762,0,5-2.238,5-5V104.73
		C77.16,101.969,74.922,99.73,72.16,99.73z"/>
            <path d="M41.066,0.341C18.422,0.341,0,18.743,0,41.362C0,63.991,18.422,82.4,41.066,82.4
		c22.626,0,41.033-18.41,41.033-41.038C82.1,18.743,63.692,0.341,41.066,0.341z"/>
            <path d="M230.454,94.761c-24.995,0-43.472,10.745-54.679,22.954V104.73c0-2.761-2.238-5-5-5h-59.599
		c-2.762,0-5,2.239-5,5v199.928c0,2.762,2.238,5,5,5h62.097c2.762,0,5-2.238,5-5v-98.918c0-33.333,9.054-46.319,32.29-46.319
		c25.306,0,27.317,20.818,27.317,48.034v97.204c0,2.762,2.238,5,5,5H305c2.762,0,5-2.238,5-5V194.995
		C310,145.43,300.549,94.761,230.454,94.761z"/>
        </g>
    </symbol>

    <symbol id="google" viewBox="0 0 24 24">
        <g>
            <path d="m21.823 9h-2.187v2.177h-2.177v2.187h2.177v2.177h2.187v-2.177h2.177v-2.187h-2.177z"/>
            <path d="m7.5 19.5c4.328 0 7.203-3.038 7.203-7.326 0-.491-.051-.87-.122-1.248h-7.08v2.578h4.257c-.174 1.095-1.289 3.233-4.257 3.233-2.557 0-4.645-2.118-4.645-4.737s2.087-4.738 4.645-4.738c1.463 0 2.435.624 2.988 1.156l2.036-1.954c-1.311-1.227-2.999-1.964-5.025-1.964-4.144 0-7.5 3.356-7.5 7.5s3.356 7.5 7.5 7.5z"/>
        </g>
    </symbol>

    <symbol id="medical-staff" viewBox="0 0 27.999 49.003">
        <g transform="translate(-1128 -709)">
            <g transform="translate(693.777 601.619)">
                <g>
                    <g>
                        <path class="cls-1" d="M460.528,142.418a.886.886,0,0,1-.858-.908v-17.1c-.008-.32-.215-7.92-12.033-7.92-9.844,0-10.575,7.668-10.6,8l0,16.828a.863.863,0,1,1-1.723,0V124.409c.012-.174.912-9.732,12.322-9.732,13.6,0,13.753,9.635,13.753,9.732v17.1A.887.887,0,0,1,460.528,142.418Z"/>
                    </g>
                    <g>
                        <path class="cls-1" d="M460.351,156.383H436.092a.855.855,0,0,1-.785-.539,13.614,13.614,0,0,1-1.085-5.308c0-7.21,5.563-13.074,12.4-13.074h3.193c6.84,0,12.4,5.864,12.4,13.074a13.5,13.5,0,0,1-1.085,5.308A.855.855,0,0,1,460.351,156.383Zm-23.682-1.817h23.109a11.69,11.69,0,0,0,.719-4.031c0-6.208-4.79-11.257-10.679-11.257h-3.193c-5.89,0-10.683,5.049-10.683,11.257A11.734,11.734,0,0,0,436.669,154.567Z"/>
                    </g>
                    <g>
                        <path class="cls-1" d="M448.222,155.317a.745.745,0,0,1-.658-.507l-4.7-15.746a.773.773,0,0,1,.1-.649.678.678,0,0,1,.558-.3h9.864a.684.684,0,0,1,.566.3.759.759,0,0,1,.088.661l-5.159,15.746A.7.7,0,0,1,448.222,155.317Zm-3.766-15.746,3.793,12.7,4.166-12.7Z"/>
                    </g>
                    <g>
                        <path class="cls-1" d="M448.276,137.154a10.191,10.191,0,0,1-9.987-10.417.69.69,0,1,1,1.377,0,8.752,8.752,0,0,0,8.506,8.962c4.982,0,8.525-3.491,8.525-8.3a.69.69,0,1,1,1.377,0A9.565,9.565,0,0,1,448.276,137.154Z"/>
                    </g>
                    <path class="cls-1" d="M447.637,155.134a.482.482,0,0,1-.365-.162l-4.124-4.481a.577.577,0,0,1,0-.766l1.389-1.456-4.666-1.018a.519.519,0,0,1-.346-.272.542.542,0,0,1-.027-.462l2.889-7.684a.511.511,0,0,1,.673-.308.556.556,0,0,1,.289.706l-2.666,7.088,5,1.091a.517.517,0,0,1,.389.373.558.558,0,0,1-.127.543l-1.7,1.792,3.766,4.092a.566.566,0,0,1-.008.77A.493.493,0,0,1,447.637,155.134Z"/>
                    <path class="cls-1" d="M448.9,155.134a.478.478,0,0,1-.358-.154.557.557,0,0,1-.012-.766l3.762-4.1-1.7-1.792a.579.579,0,0,1-.131-.543.517.517,0,0,1,.389-.373l5-1.091-2.662-7.088a.556.556,0,0,1,.289-.706.515.515,0,0,1,.673.308l2.893,7.684a.621.621,0,0,1-.027.462.542.542,0,0,1-.354.272L452,148.269l1.381,1.456a.565.565,0,0,1,.008.766l-4.12,4.477A.486.486,0,0,1,448.9,155.134Z"/>
                    <path class="cls-1" d="M458.389,152.965h-2.831a.531.531,0,0,1-.519-.543v-2.242a.531.531,0,0,1,.519-.543h2.831a.533.533,0,0,1,.516.543v2.242A.533.533,0,0,1,458.389,152.965Zm-2.316-1.087h1.8v-1.156h-1.8Z"/>
                    <path class="cls-1" d="M452.142,144.49h-7.1a.544.544,0,0,1,0-1.087h7.1a.544.544,0,0,1,0,1.087Z"/>
                    <g>
                        <g>
                            <path class="cls-1" d="M453.569,117.909a.841.841,0,0,1-.562-.219,7.15,7.15,0,0,0-4.855-1.772,7.343,7.343,0,0,0-4.859,1.679.806.806,0,0,1-.642.2.847.847,0,0,1-.577-.341l-3.809-5.085a.937.937,0,0,1-.177-.689.916.916,0,0,1,.354-.612c6.759-5.073,13.1-4.789,19.45.1a.9.9,0,0,1,.346.608.962.962,0,0,1-.177.685l-3.82,5.1a.84.84,0,0,1-.592.341Zm-5.5-3.8a9.087,9.087,0,0,1,5.347,1.63l2.728-3.641c-5.532-3.929-10.625-3.779-15.957-.085l2.724,3.637A9.109,9.109,0,0,1,448.072,114.105Z"/>
                        </g>
                    </g>
                    <path class="cls-1" d="M456.97,128.124h-.008c-4.286-.061-7.925-3.3-9.279-4.667a12.581,12.581,0,0,1-8.39,4.006c-.342.081-.692-.3-.712-.7a.711.711,0,0,1,.658-.754c.05,0,5.128-.268,7.852-4.075a.67.67,0,0,1,.515-.288.551.551,0,0,1,.542.239c.038.045,4.116,4.72,8.833,4.781a.729.729,0,0,1-.012,1.456Z"/>
                    <path class="cls-1" d="M444.548,129.1a.741.741,0,1,1-.742-.779A.764.764,0,0,1,444.548,129.1Z"/>
                    <path class="cls-1" d="M452.888,129.1a.742.742,0,1,1-1.481,0,.741.741,0,1,1,1.481,0Z"/>
                </g>
            </g>
            <path d="M1129.87,758a.854.854,0,0,1-.785-.539,13.621,13.621,0,0,1-1.085-5.308c0-7.21,5.563-13.073,12.4-13.073h3.193c6.84,0,12.4,5.863,12.4,13.073a13.512,13.512,0,0,1-1.085,5.308.856.856,0,0,1-.786.539Zm20.95-9.866a.62.62,0,0,1-.026.463.543.543,0,0,1-.355.271l-4.662,1.018,1.381,1.456a.563.563,0,0,1,.008.766l-3.751,4.076h10.141a11.7,11.7,0,0,0,.719-4.031,11.359,11.359,0,0,0-5.688-9.95Zm-21.1,4.018a11.74,11.74,0,0,0,.727,4.031h10.229l-3.751-4.076a.576.576,0,0,1,0-.766l1.389-1.456-4.667-1.018a.519.519,0,0,1-.346-.271.539.539,0,0,1-.027-.463l2.255-6A11.35,11.35,0,0,0,1129.72,752.154Zm13.44,2.75,2.911-3.168-1.392-1.467Zm-5.142-3.168,2.846,3.091-1.383-4.629Zm4.009,2.157,2.553-7.786H1139.7Zm-5.158-12.364-2.409,6.407,4.649,1.013-2.219-7.428Zm9.461,3.7a.562.562,0,0,1,.11.335.539.539,0,0,1-.392.527l-.927,2.829,4.508-.984-2.236-5.952Zm-6.953-.208h5.559l1.243-3.792c-.052-.014-.105-.028-.158-.04h-7.788Zm9.959,9.562a.531.531,0,0,1-.52-.544V751.8a.531.531,0,0,1,.52-.544h2.831a.532.532,0,0,1,.515.544v2.242a.532.532,0,0,1-.515.544Zm.515-1.087h1.8v-1.156h-1.8Zm3.6-10.369v-17.1c-.006-.245-.128-4.725-5.434-6.836a.841.841,0,0,1-.587.332l-.08,0a.842.842,0,0,1-.562-.219,6.308,6.308,0,0,0-1.1-.8,21.128,21.128,0,0,0-4.276-.4,15.422,15.422,0,0,0-3.179.309,6.431,6.431,0,0,0-1.164.8.809.809,0,0,1-.643.2.851.851,0,0,1-.5-.254,8.778,8.778,0,0,0-5.114,6.944l0,16.828a.863.863,0,1,1-1.724,0V726.027a11,11,0,0,1,5.739-8.317l-2.788-3.722a.936.936,0,0,1-.177-.689.917.917,0,0,1,.355-.612c6.759-5.073,13.1-4.789,19.45.1a.9.9,0,0,1,.346.608.965.965,0,0,1-.177.686l-2.723,3.637a9.774,9.774,0,0,1,6.052,8.309v17.1a.861.861,0,1,1-1.72,0Zm-7.151-26.335c.383.086.752.184,1.1.289l2.524-3.369c-5.532-3.929-10.626-3.779-15.958-.086l2.537,3.389q.547-.18,1.148-.32a9.668,9.668,0,0,1,8.645.1Zm-14.23,11.563a.707.707,0,0,1,.689-.726.623.623,0,0,1,.143.016.641.641,0,0,1,.118-.016c.05,0,5.128-.267,7.852-4.075a.67.67,0,0,1,.516-.288.551.551,0,0,1,.543.239c.039.044,4.117,4.72,8.833,4.781a.665.665,0,0,1,.2.034.644.644,0,0,1,.209-.034.706.706,0,0,1,.688.73,9.565,9.565,0,0,1-9.8,9.756A10.19,10.19,0,0,1,1132.067,728.356Zm1.4.695a8.711,8.711,0,0,0,8.481,8.266c4.73,0,8.164-3.148,8.5-7.584-4.158-.2-7.663-3.319-8.986-4.658A12.453,12.453,0,0,1,1133.469,729.05Zm11.715,1.673a.742.742,0,1,1,1.481,0,.742.742,0,1,1-1.481,0Zm-8.34,0a.742.742,0,1,1,.739.782A.762.762,0,0,1,1136.844,730.724Z"/>
        </g>
    </symbol>

    <symbol id="qualified-doctors" viewBox="0 0 40.001 37.999">
        <g transform="translate(-1477 -714)">
            <g transform="translate(1432.614 587.286)">
                <g>
                    <path class="cls-1" d="M56.612,146.057H53.633a.56.56,0,0,1-.554-.568v-2.816H50.306a.559.559,0,0,1-.554-.564v-3.03a.559.559,0,0,1,.554-.564h2.772V135.7a.56.56,0,0,1,.554-.568h2.979a.56.56,0,0,1,.554.568v2.82h2.772a.563.563,0,0,1,.559.564v3.03a.563.563,0,0,1-.559.564H57.166v2.816A.56.56,0,0,1,56.612,146.057Zm-2.424-1.132h1.866v-2.816a.561.561,0,0,1,.559-.568h2.772v-1.9H56.612a.56.56,0,0,1-.559-.564v-2.82H54.187v2.82a.559.559,0,0,1-.554.564H50.861v1.9h2.772a.56.56,0,0,1,.554.568Z"/>
                    <path class="cls-1" d="M83.645,154.928H45.126a.746.746,0,0,1-.741-.753V131.723a.746.746,0,0,1,.741-.753H74.895a.741.741,0,0,1,.6.316L84.249,143.8a.781.781,0,0,1,.137.438v9.936A.746.746,0,0,1,83.645,154.928Zm-37.778-1.507H82.9v-8.943l-8.395-12H45.867Z"/>
                    <path class="cls-1" d="M69.5,132.48H65.317a.75.75,0,0,1-.741-.758v-4.255a.746.746,0,0,1,.741-.753H69.5a.746.746,0,0,1,.741.753v4.255A.75.75,0,0,1,69.5,132.48Zm-3.446-1.511h2.706v-2.748H66.057Z"/>
                    <path class="cls-1" d="M79.3,144.613H68.3a.746.746,0,0,1-.741-.753v-8.392a.747.747,0,0,1,.741-.758h5a.735.735,0,0,1,.6.311l5.863,8.24a.761.761,0,0,1,.285.6A.746.746,0,0,1,79.3,144.613ZM69.036,143.1H77.82l-4.9-6.881H69.036Z"/>
                    <path class="cls-1" d="M83.074,148.031H81.043a.566.566,0,0,1,0-1.132h2.031a.566.566,0,0,1,0,1.132Z"/>
                    <path class="cls-1" d="M83.074,150.417H81.043a.564.564,0,0,1,0-1.128h2.031a.564.564,0,0,1,0,1.128Z"/>
                    <path class="cls-1" d="M65.25,154.541a.746.746,0,0,1-.741-.753v-18.32a.743.743,0,1,1,1.485,0v18.32A.747.747,0,0,1,65.25,154.541Z"/>
                    <path class="cls-1" d="M65.25,149.154H45.465a.566.566,0,0,1,0-1.132H65.25a.566.566,0,0,1,0,1.132Z"/>
                    <g>
                        <path class="cls-1" d="M52.822,164.713a5.144,5.144,0,1,1,5.056-5.143A5.1,5.1,0,0,1,52.822,164.713Zm0-8.779A3.637,3.637,0,1,0,56.4,159.57,3.612,3.612,0,0,0,52.822,155.934Z"/>
                    </g>
                    <g>
                        <path class="cls-1" d="M74.952,164.713a5.144,5.144,0,1,1,5.056-5.143A5.1,5.1,0,0,1,74.952,164.713Zm0-8.779a3.637,3.637,0,1,0,3.575,3.636A3.612,3.612,0,0,0,74.952,155.934Z"/>
                    </g>
                    <path class="cls-1" d="M70.823,148.418H69.152a1.437,1.437,0,0,1,0-2.874h1.671a1.437,1.437,0,0,1,0,2.874Z"/>
                </g>
            </g>
            <path d="M1502.511,746.856a5.155,5.155,0,0,1,2.879-4.641h-17.778a5.056,5.056,0,1,1-4.353,0h-5.519a.747.747,0,0,1-.741-.753V719.008a.746.746,0,0,1,.741-.753h19.45v-3.5a.746.746,0,0,1,.741-.753h4.187a.746.746,0,0,1,.741.753v3.5h4.65a.74.74,0,0,1,.6.316l8.751,12.516a.777.777,0,0,1,.137.437v9.937a.747.747,0,0,1-.741.753h-6.516a5.121,5.121,0,1,1-7.232,4.641Zm1.481,0a3.575,3.575,0,1,0,3.574-3.636A3.611,3.611,0,0,0,1503.993,746.856Zm-22.131,0a3.575,3.575,0,1,0,3.575-3.636A3.612,3.612,0,0,0,1481.862,746.856Zm16.748-24.1v17.954h16.909V737.7h-1.862a.564.564,0,0,1,0-1.128h1.862v-1.259h-1.862a.566.566,0,0,1,0-1.132h1.862v-2.419l-8.394-12h-28.643v15.542h18.643V722.754a.743.743,0,1,1,1.486,0Zm-20.129,17.954h18.643V736.44h-18.643Zm20.191-22.453h2.705v-2.748h-2.705Zm3.094,17.449a1.438,1.438,0,0,1,0-2.875h1.672a1.438,1.438,0,0,1,0,2.875Zm-15.519-2.362a.56.56,0,0,1-.554-.568v-2.815h-2.772a.56.56,0,0,1-.554-.564v-3.03a.559.559,0,0,1,.554-.563h2.772v-2.82a.561.561,0,0,1,.554-.569h2.979a.561.561,0,0,1,.554.569v2.82h2.772a.562.562,0,0,1,.558.563v3.03a.563.563,0,0,1-.558.564h-2.772v2.815a.56.56,0,0,1-.554.568Zm-2.772-4.515h2.772a.56.56,0,0,1,.554.568v2.815h1.866V729.4a.561.561,0,0,1,.559-.568H1492v-1.9h-2.772a.561.561,0,0,1-.559-.564v-2.82H1486.8v2.82a.56.56,0,0,1-.554.564h-2.772Zm28.407,3.072H1500.91a.746.746,0,0,1-.741-.753v-8.392a.747.747,0,0,1,.741-.758h5a.734.734,0,0,1,.6.311l5.863,8.24a.762.762,0,0,1,.285.6.746.746,0,0,1-.74.753Zm-10.231-1.51h8.783l-4.9-6.881h-3.884Z"/>
        </g>
    </symbol>

    <symbol id="logo-main" viewBox="0 0 64.324 56.64">
        <g transform="translate(0.003 -4.359)">
            <g transform="translate(-495.192 -933.744)">
                <g>
                    <g>
                        <path class="cls-1" d="M524.353,994.043h-2.847V983.771a4.959,4.959,0,0,0-2.129-4.061l-11.915-8.229v-5.518a.836.836,0,0,0-.254-.605.892.892,0,0,0-.616-.259h-2.93l-.273.271v8.374h-2.841V965.37a3.091,3.091,0,0,1,3.114-3.09h2.93a3.7,3.7,0,0,1,2.625,1.078,3.628,3.628,0,0,1,1.087,2.6v4.042L521,977.4a7.737,7.737,0,0,1,3.355,6.375Z"/>
                        <path class="cls-1" d="M512.126,994.744h-2.841v-6.93l-11.254-7.643a6.067,6.067,0,0,1-2.841-5.146V958.156a5.108,5.108,0,0,1,1.531-3.657,5.186,5.186,0,0,1,3.686-1.513h2.542a4.323,4.323,0,0,1,4.334,4.3v6.4h-2.847v-6.4a1.448,1.448,0,0,0-.432-1.04,1.482,1.482,0,0,0-1.055-.441h-2.542a2.367,2.367,0,0,0-2.37,2.352v16.868a3.246,3.246,0,0,0,.413,1.6,3.134,3.134,0,0,0,1.131,1.186l12.544,8.519Z"/>
                    </g>
                    <g>
                        <path class="cls-1" d="M533.2,994.043h-2.841V983.771a7.687,7.687,0,0,1,.89-3.6,7.887,7.887,0,0,1,2.459-2.775l10.7-7.391v-4.042a3.63,3.63,0,0,1,1.093-2.6,3.68,3.68,0,0,1,2.625-1.078h2.93a3.081,3.081,0,0,1,2.205.908,3.045,3.045,0,0,1,.915,2.182v8.374h-2.847V965.37l-.273-.271h-2.93a.914.914,0,0,0-.616.252.872.872,0,0,0-.254.612v5.518l-11.915,8.229a4.952,4.952,0,0,0-1.563,1.772,4.8,4.8,0,0,0-.572,2.289Z"/>
                        <path class="cls-1" d="M545.425,994.744h-2.841v-8.419l12.487-8.482a3.372,3.372,0,0,0,1.188-1.223,3.246,3.246,0,0,0,.413-1.6V958.156a2.329,2.329,0,0,0-.693-1.659,2.371,2.371,0,0,0-1.678-.694h-2.542a1.476,1.476,0,0,0-1.049.435,1.459,1.459,0,0,0-.445,1.047v6.4h-2.841v-6.4a4.312,4.312,0,0,1,4.334-4.3H554.3a5.2,5.2,0,0,1,3.686,1.513,5.128,5.128,0,0,1,1.525,3.657v16.868a6.071,6.071,0,0,1-2.891,5.184l-11.2,7.605Z"/>
                    </g>
                    <path class="cls-1" d="M530.981,967.281h-8.21a1.42,1.42,0,0,1-1.423-1.413v-7.693h-7.753a1.414,1.414,0,0,1-1.417-1.413v-8.141a1.42,1.42,0,0,1,1.417-1.419h7.753v-7.693a1.414,1.414,0,0,1,1.423-1.406h8.21a1.414,1.414,0,0,1,1.423,1.406V947.2h7.753a1.425,1.425,0,0,1,1.423,1.419v8.141a1.42,1.42,0,0,1-1.423,1.413H532.4v7.693A1.42,1.42,0,0,1,530.981,967.281Zm-6.793-2.825h5.376v-7.693a1.418,1.418,0,0,1,1.417-1.413h7.753v-5.328h-7.753a1.408,1.408,0,0,1-1.417-1.4v-7.7h-5.376v7.7a1.408,1.408,0,0,1-1.417,1.4h-7.753v5.328h7.753a1.418,1.418,0,0,1,1.417,1.413Z"/>
                </g>
            </g>
            <path d="M47.392,61V52.581L59.879,44.1a3.371,3.371,0,0,0,1.188-1.223,3.253,3.253,0,0,0,.413-1.595V24.412a2.331,2.331,0,0,0-.693-1.659,2.369,2.369,0,0,0-1.678-.694H56.568a1.48,1.48,0,0,0-1.049.435,1.461,1.461,0,0,0-.445,1.047v4.995h.782a3.083,3.083,0,0,1,2.205.907,3.05,3.05,0,0,1,.916,2.183V40H56.13V31.626l-.274-.272H52.927a.92.92,0,0,0-.617.252.876.876,0,0,0-.254.612v5.517l-11.915,8.23a4.947,4.947,0,0,0-1.563,1.772,4.791,4.791,0,0,0-.572,2.289V60.3H35.165V50.027a7.692,7.692,0,0,1,.889-3.6,7.894,7.894,0,0,1,2.459-2.775l10.7-7.391V32.218A3.709,3.709,0,0,1,52.234,28.6V23.542a4.312,4.312,0,0,1,4.334-4.3H59.11A5.2,5.2,0,0,1,62.8,20.755a5.128,5.128,0,0,1,1.525,3.657V41.281a6.073,6.073,0,0,1-2.892,5.183l-11.2,7.6V61Zm-33.3,0v-6.93L2.838,46.426A6.071,6.071,0,0,1,0,41.281V24.412a5.108,5.108,0,0,1,1.531-3.657,5.187,5.187,0,0,1,3.687-1.514H7.757a4.323,4.323,0,0,1,4.334,4.3V28.6a3.689,3.689,0,0,1,1.931,1.014,3.63,3.63,0,0,1,1.087,2.6V36.26l10.7,7.391a7.738,7.738,0,0,1,3.355,6.376V60.3H26.313V50.027a4.961,4.961,0,0,0-2.129-4.061l-11.915-8.23V32.218a.838.838,0,0,0-.254-.605.9.9,0,0,0-.617-.259H8.469l-.274.272V40H5.355V31.626a3.09,3.09,0,0,1,3.114-3.09h.775V23.542a1.445,1.445,0,0,0-.433-1.04,1.481,1.481,0,0,0-1.054-.442H5.215a2.369,2.369,0,0,0-2.371,2.353V41.281a3.239,3.239,0,0,0,.413,1.595,3.133,3.133,0,0,0,1.132,1.186l12.544,8.52V61ZM27.577,33.536a1.419,1.419,0,0,1-1.424-1.412V24.431H18.4a1.414,1.414,0,0,1-1.417-1.412V14.877A1.419,1.419,0,0,1,18.4,13.458h7.752V5.765a1.414,1.414,0,0,1,1.424-1.405h8.21a1.414,1.414,0,0,1,1.424,1.405v7.694h7.754a1.425,1.425,0,0,1,1.424,1.418v8.142a1.419,1.419,0,0,1-1.424,1.412H37.211v7.694a1.419,1.419,0,0,1-1.424,1.412Zm-7.752-11.93h7.752a1.418,1.418,0,0,1,1.417,1.413v7.693H34.37V23.019a1.418,1.418,0,0,1,1.417-1.413h7.754V16.277H35.787a1.407,1.407,0,0,1-1.417-1.4v-7.7H28.994v7.7a1.407,1.407,0,0,1-1.417,1.4H19.825Z"/>
        </g>
    </symbol>

    <symbol id="get-in-touch-phone" viewBox="0 0 27 40">
        <g transform="translate(-114 -300.741)">
            <g>
                <path class="cls-2" d="M137.25,300.741h-19.5a3.731,3.731,0,0,0-3.75,3.7v32.593a3.731,3.731,0,0,0,3.75,3.7h19.5a3.731,3.731,0,0,0,3.75-3.7V304.444A3.731,3.731,0,0,0,137.25,300.741Zm-21.75,6.667h24V330.37h-24Zm2.25-5.185h19.5a2.239,2.239,0,0,1,2.25,2.222v1.481h-24v-1.481A2.239,2.239,0,0,1,117.75,302.222Zm19.5,37.037h-19.5a2.239,2.239,0,0,1-2.25-2.222v-5.185h24v5.185A2.239,2.239,0,0,1,137.25,339.259Z"/>
                <path class="cls-2" d="M129,334.815h-3a.741.741,0,1,0,0,1.482h3a.741.741,0,1,0,0-1.482Z"/>
            </g>
        </g>
    </symbol>

    <symbol id="get-in-touch-email" viewBox="0 0 40 31">
        <g transform="translate(-342.963 -72.333)">
            <g>
                <path class="cls-2" d="M379.259,72.333H346.667a3.7,3.7,0,0,0-3.7,3.69V99.643a3.7,3.7,0,0,0,3.7,3.69h32.593a3.7,3.7,0,0,0,3.7-3.69V76.024A3.7,3.7,0,0,0,379.259,72.333Zm2.222,27.31a2.221,2.221,0,0,1-2.222,2.214H346.667a2.221,2.221,0,0,1-2.222-2.214V76.024a2.221,2.221,0,0,1,2.222-2.214h32.593a2.221,2.221,0,0,1,2.222,2.214Z"/>
                <path class="cls-2" d="M378.776,75.465,364.721,87.559a2.823,2.823,0,0,1-3.517,0L347.15,75.465a.739.739,0,1,0-.967,1.117l14.053,12.094a4.318,4.318,0,0,0,5.453,0l14.053-12.094a.739.739,0,1,0-.967-1.117Z"/>
            </g>
        </g>
    </symbol>

    <symbol id="get-in-touch-address" viewBox="0 0 38 40">
        <g transform="translate(-46.768 -241.481)">
            <g>
                <path class="cls-2" d="M65.223,272.345a.728.728,0,0,0,.545.247.685.685,0,0,0,.549-.252,65.749,65.749,0,0,0,9.475-14.808,11.141,11.141,0,1,0-20.149-.023A64.486,64.486,0,0,0,65.223,272.345Zm.508-29.382a9.746,9.746,0,0,1,8.732,13.954,64.277,64.277,0,0,1-8.7,13.793,62.953,62.953,0,0,1-8.793-13.817,9.773,9.773,0,0,1,8.76-13.93Z"/>
                <path class="cls-2" d="M65.731,257.951a5.361,5.361,0,1,0-5.289-5.361A5.331,5.331,0,0,0,65.731,257.951Zm0-9.24A3.88,3.88,0,1,1,61.9,252.59,3.857,3.857,0,0,1,65.731,248.711Z"/>
                <path class="cls-2" d="M84.745,280.554l-4.385-17.037a.74.74,0,0,0-.436-.5l-3.654-1.481-.544,1.376,3.312,1.342,3.885,15.1L75.6,275.633a.724.724,0,0,0-.633-.01l-9.194,4.3-9.194-4.3a.724.724,0,0,0-.633.01l-7.329,3.715,3.885-15.1,3.312-1.342-.544-1.376-3.654,1.481a.74.74,0,0,0-.436.5l-4.385,17.037a.746.746,0,0,0,.247.762.724.724,0,0,0,.787.087l8.455-4.286,9.181,4.3a.726.726,0,0,0,.612,0l9.181-4.3,8.455,4.286a.724.724,0,0,0,.787-.087A.746.746,0,0,0,84.745,280.554Z"/>
            </g>
        </g>
    </symbol>

    <symbol id="emergency-help" viewBox="0 0 45.999 40.998">
        <g transform="translate(-760.999 -713)">
            <g transform="translate(-60.843 435.858)">
                <g>
                    <g>
                        <path class="cls-1" d="M852.658,315.665a.639.639,0,0,1-.5-.238l-7.922-10.137a.565.565,0,0,1,.128-.815.649.649,0,0,1,.867.121l7.922,10.137a.57.57,0,0,1-.128.819A.685.685,0,0,1,852.658,315.665Z"/>
                        <g>
                            <path class="cls-1" d="M846.039,318.141a12.674,12.674,0,0,1-1.8-.126,12.016,12.016,0,0,1-7.853-4.47l-12.2-15.6a10.839,10.839,0,0,1-2.211-8.411,11.147,11.147,0,0,1,4.734-7.423l1.312-.919a3,3,0,0,1,2.161-.507,2.922,2.922,0,0,1,1.9,1.084l5.321,6.8a3.1,3.1,0,0,1,.656,2.272,3.162,3.162,0,0,1-1.147,2.09l-2.055,1.717,8,10.228,2.339-1.353a3.583,3.583,0,0,1,2.45-.416,3.428,3.428,0,0,1,2.106,1.257l5.316,6.8a2.6,2.6,0,0,1,.537,2.042,2.758,2.758,0,0,1-1.147,1.8l-1.321.919A12.3,12.3,0,0,1,846.039,318.141Zm-16.22-35.587a.982.982,0,0,0-.606.165l-1.317.915a9.319,9.319,0,0,0-3.936,6.178,9.018,9.018,0,0,0,1.839,7L838,312.422a10.022,10.022,0,0,0,6.537,3.716,10.327,10.327,0,0,0,7.408-1.734l1.316-.923a.856.856,0,0,0,.358-.555.8.8,0,0,0-.17-.633l-5.316-6.807a1.427,1.427,0,0,0-.867-.52,1.494,1.494,0,0,0-1.027.173l-3.119,1.808a1.035,1.035,0,0,1-1.33-.247l-9.1-11.624a.914.914,0,0,1,.147-1.275l2.743-2.294a1.3,1.3,0,0,0,.477-.871,1.284,1.284,0,0,0-.275-.941l-5.312-6.8a.91.91,0,0,0-.592-.338Z"/>
                            <path class="cls-1" d="M835.342,293.514a.617.617,0,0,1-.5-.238l-7.927-10.137a.571.571,0,0,1,.133-.819.646.646,0,0,1,.862.126l7.927,10.137a.569.569,0,0,1-.133.815A.634.634,0,0,1,835.342,293.514Z"/>
                        </g>
                    </g>
                    <path class="cls-1" d="M853.429,304.748a.822.822,0,0,1-.353-.078.763.763,0,0,1-.463-.819l.624-3.776c-6.7-.611-11.812-5.48-11.812-11.416,0-6.347,5.927-11.515,13.206-11.515s13.211,5.168,13.211,11.515c0,4.982-3.647,9.33-9.1,10.891l-4.7,4.938A.853.853,0,0,1,853.429,304.748Zm1.2-26.053c-6.376,0-11.564,4.47-11.564,9.963,0,5.363,4.894,9.72,11.147,9.92a.832.832,0,0,1,.6.282.748.748,0,0,1,.183.611l-.339,2.042,3.018-3.165a.81.81,0,0,1,.385-.23c4.867-1.309,8.138-5.112,8.138-9.46C866.2,283.165,861.011,278.7,854.63,278.7Z"/>
                    <path class="cls-1" d="M856.667,296.007H852.6a.8.8,0,0,1-.821-.776v-3.521h-3.725a.8.8,0,0,1-.821-.78v-3.841a.8.8,0,0,1,.821-.776h3.725v-3.521a.805.805,0,0,1,.821-.78h4.069a.805.805,0,0,1,.821.78v3.521h3.725a.8.8,0,0,1,.821.776v3.841a.8.8,0,0,1-.821.78h-3.725v3.521A.8.8,0,0,1,856.667,296.007Zm-3.243-1.552h2.417V290.93a.8.8,0,0,1,.826-.776h3.72v-2.289h-3.72a.8.8,0,0,1-.826-.776v-3.521h-2.417v3.521a.8.8,0,0,1-.826.776h-3.72v2.289h3.72a.8.8,0,0,1,.826.776Z"/>
                </g>
            </g>
            <path d="M783.4,753.872a12.015,12.015,0,0,1-7.853-4.47l-12.2-15.6a10.839,10.839,0,0,1-2.211-8.411,11.15,11.15,0,0,1,4.734-7.423l1.312-.919a3,3,0,0,1,2.16-.507,2.921,2.921,0,0,1,1.9,1.084l5.321,6.8a3.106,3.106,0,0,1,.656,2.272,3.165,3.165,0,0,1-1.147,2.09l-2.056,1.716,8,10.229,2.339-1.353a3.582,3.582,0,0,1,2.45-.417,3.427,3.427,0,0,1,2.105,1.257l5.317,6.8a2.6,2.6,0,0,1,.536,2.042,2.757,2.757,0,0,1-1.147,1.8l-1.321.919A12.3,12.3,0,0,1,785.2,754,12.736,12.736,0,0,1,783.4,753.872Zm-20.28-28.2a9.02,9.02,0,0,0,1.84,7l12.2,15.609a10.022,10.022,0,0,0,6.537,3.715,10.336,10.336,0,0,0,7.021-1.477l-6.781-8.676-1.658.961a1.034,1.034,0,0,1-1.33-.247l-9.1-11.624a.915.915,0,0,1,.147-1.274l1.461-1.221-6.781-8.671A9.281,9.281,0,0,0,763.117,725.669ZM785.4,741l-.4.234,6.723,8.6.7-.494a.856.856,0,0,0,.357-.555.794.794,0,0,0-.169-.633l-5.317-6.807a1.422,1.422,0,0,0-.867-.52,1.545,1.545,0,0,0-.284-.027A1.513,1.513,0,0,0,785.4,741ZM768.37,718.576l-.7.488,6.72,8.595.353-.294a1.3,1.3,0,0,0,.477-.872,1.283,1.283,0,0,0-.274-.94l-5.312-6.8a.915.915,0,0,0-.592-.338h-.064A.98.98,0,0,0,768.37,718.576Zm23.863,21.951a.763.763,0,0,1-.464-.819l.624-3.776c-6.7-.612-11.812-5.48-11.812-11.416,0-6.348,5.927-11.516,13.206-11.516S807,718.169,807,724.516c0,4.982-3.647,9.33-9.1,10.891l-4.7,4.938a.853.853,0,0,1-.61.26A.815.815,0,0,1,792.232,740.527Zm-10.01-16.011c0,5.363,4.9,9.72,11.147,9.92a.828.828,0,0,1,.6.282.747.747,0,0,1,.184.611l-.339,2.042,3.019-3.165a.808.808,0,0,1,.385-.229c4.867-1.31,8.138-5.112,8.138-9.46,0-5.494-5.188-9.964-11.57-9.964S782.222,719.023,782.222,724.516Zm9.533,7.349a.8.8,0,0,1-.822-.776v-3.521h-3.724a.8.8,0,0,1-.822-.78v-3.841a.8.8,0,0,1,.822-.777h3.724v-3.52a.806.806,0,0,1,.822-.781h4.068a.806.806,0,0,1,.822.781v3.52h3.724a.8.8,0,0,1,.822.777v3.841a.8.8,0,0,1-.822.78h-3.724v3.521a.8.8,0,0,1-.822.776Zm-3.721-5.853h3.721a.8.8,0,0,1,.825.776v3.524H795v-3.524a.8.8,0,0,1,.825-.776h3.721v-2.29h-3.721a.8.8,0,0,1-.825-.776v-3.521h-2.417v3.521a.8.8,0,0,1-.825.776h-3.721Z"/>
        </g>
    </symbol>

    <symbol id="best-treatment" viewBox="0 0 40.997 44.999">
        <g transform="translate(-408.001 -709.999)">
            <g transform="translate(280.771 566.994)">
                <g>
                    <g>
                        <g>
                            <path d="M143.455,173.417h-8.95a7.009,7.009,0,0,1-5.15-2.279,8.029,8.029,0,0,1-2.125-5.505V151.425a3.405,3.405,0,0,1,.9-2.342,2.994,2.994,0,0,1,2.193-.972h2.67a1.091,1.091,0,0,1,0,2.177h-2.67a1.04,1.04,0,0,0-.758.33,1.191,1.191,0,0,0-.3.807v14.208a5.8,5.8,0,0,0,1.535,3.97,5.043,5.043,0,0,0,3.71,1.642h8.95a1.088,1.088,0,0,1,0,2.172Z"/>
                            <path d="M135.432,154.778a3.181,3.181,0,0,1-3.065-3.275V146.28a3.07,3.07,0,1,1,6.126,0V151.5A3.178,3.178,0,0,1,135.432,154.778Zm0-9.6a1.071,1.071,0,0,0-1.031,1.1V151.5a1.033,1.033,0,1,0,2.062,0V146.28A1.071,1.071,0,0,0,135.432,145.177Z"/>
                        </g>
                        <g>
                            <path d="M147.106,173.417h-5.331a1.088,1.088,0,0,1,0-2.172h5.331a5.058,5.058,0,0,0,3.71-1.642,5.779,5.779,0,0,0,1.535-3.97V151.425a1.2,1.2,0,0,0-.309-.807,1.023,1.023,0,0,0-.754-.33h-2.67a1.091,1.091,0,0,1,0-2.177h2.67a2.969,2.969,0,0,1,2.189.972,3.388,3.388,0,0,1,.9,2.342v14.208a7.994,7.994,0,0,1-2.13,5.505A6.992,6.992,0,0,1,147.106,173.417Z"/>
                            <path d="M146.18,154.778a3.178,3.178,0,0,1-3.061-3.275V146.28a3.068,3.068,0,1,1,6.121,0V151.5A3.178,3.178,0,0,1,146.18,154.778Zm0-9.6a1.071,1.071,0,0,0-1.031,1.1V151.5a1.033,1.033,0,1,0,2.062,0V146.28A1.071,1.071,0,0,0,146.18,145.177Z"/>
                        </g>
                    </g>
                    <path d="M149.79,188h-5.817a4.687,4.687,0,0,1-3.456-1.531,5.378,5.378,0,0,1-1.435-3.7V172.333a1.017,1.017,0,1,1,2.03,0v10.437a3.151,3.151,0,0,0,.84,2.162,2.751,2.751,0,0,0,2.021.9h5.817a1.971,1.971,0,0,0,1.462-.651,2.274,2.274,0,0,0,.6-1.565v-4a3.246,3.246,0,0,1,.863-2.225,2.83,2.83,0,0,1,2.08-.923h3.724a1.091,1.091,0,0,1,0,2.177H154.8a.882.882,0,0,0-.645.287,1.007,1.007,0,0,0-.263.685v4a4.514,4.514,0,0,1-1.2,3.1A3.918,3.918,0,0,1,149.79,188Z"/>
                    <path d="M163.123,182.387a5.474,5.474,0,1,1,5.1-5.462A5.3,5.3,0,0,1,163.123,182.387Zm0-9.183a3.728,3.728,0,1,0,3.478,3.722A3.607,3.607,0,0,0,163.123,173.2Z"/>
                    <path d="M163.123,179.243a2.326,2.326,0,1,1,2.166-2.318A2.252,2.252,0,0,1,163.123,179.243Zm0-3.333a1.018,1.018,0,1,0,.949,1.016A.983.983,0,0,0,163.123,175.91Z"/>
                </g>
            </g>
            <path d="M424.744,755a4.684,4.684,0,0,1-3.455-1.531,5.375,5.375,0,0,1-1.436-3.7v-9.353h-4.577a7.014,7.014,0,0,1-5.15-2.279A8.033,8.033,0,0,1,408,732.628V718.42a3.4,3.4,0,0,1,.9-2.342,3,3,0,0,1,2.193-.972h2.044v-1.832a3.07,3.07,0,1,1,6.125,0V718.5a3.07,3.07,0,1,1-6.125,0v-1.215h-2.044a1.041,1.041,0,0,0-.758.33,1.191,1.191,0,0,0-.3.806v14.208a5.8,5.8,0,0,0,1.534,3.969,5.043,5.043,0,0,0,3.71,1.643h12.6a5.058,5.058,0,0,0,3.71-1.643,5.776,5.776,0,0,0,1.535-3.969V718.42a1.2,1.2,0,0,0-.309-.806,1.023,1.023,0,0,0-.753-.33h-2.048V718.5a3.067,3.067,0,1,1-6.121,0v-5.224a3.067,3.067,0,1,1,6.121,0v1.832h2.048a2.971,2.971,0,0,1,2.189.972,3.391,3.391,0,0,1,.9,2.342v14.208a8,8,0,0,1-2.13,5.505,7,7,0,0,1-5.144,2.279h-5.995v9.353a3.151,3.151,0,0,0,.841,2.163,2.752,2.752,0,0,0,2.02.9h5.818a1.97,1.97,0,0,0,1.462-.652,2.273,2.273,0,0,0,.6-1.564v-4a3.246,3.246,0,0,1,.863-2.226,2.831,2.831,0,0,1,2.08-.923H438.8a5.133,5.133,0,1,1,5.09,5.918,5.166,5.166,0,0,1-4.848-3.741H435.57a.882.882,0,0,0-.645.286,1.01,1.01,0,0,0-.263.686v4a4.518,4.518,0,0,1-1.2,3.1,3.919,3.919,0,0,1-2.9,1.282Zm15.671-11.078a3.486,3.486,0,1,0,3.479-3.722A3.606,3.606,0,0,0,440.415,743.92Zm-14.495-30.646V718.5a1.033,1.033,0,1,0,2.062,0v-5.224a1.033,1.033,0,1,0-2.062,0Zm-10.749,0V718.5a1.033,1.033,0,1,0,2.062,0v-5.224a1.033,1.033,0,1,0-2.062,0Zm26.552,30.646a2.173,2.173,0,1,1,2.17,2.318A2.253,2.253,0,0,1,441.724,743.92Zm1.221,0a.951.951,0,1,0,.949-1.016A.987.987,0,0,0,442.945,743.92Z"/>
        </g>
    </symbol>

    <symbol id="header-phone" viewBox="0 0 95.098 95.098">
        <g>
            <path d="M92.961,0H2.137C0.957,0,0,0.957,0,2.137v90.824c0,1.18,0.957,2.137,2.137,2.137h90.824c1.18,0,2.137-0.957,2.137-2.137
		V2.137C95.098,0.957,94.141,0,92.961,0z M79.561,69.389l-7.929,7.928c-0.069,0.069-0.144,0.133-0.226,0.188l-0.187,0.128
		c-1.995,1.595-4.623,2.403-7.815,2.403c-8.939,0-21.317-6.601-31.534-16.816C17.515,48.863,11.207,31.551,17.51,23.806l0.015-0.017
		c0.07-0.125,0.157-0.241,0.261-0.344l7.915-7.915c0.624-0.624,1.634-0.624,2.257,0l13.54,13.54
		c0.299,0.299,0.468,0.705,0.468,1.128c0,0.423-0.169,0.829-0.468,1.128l-7.072,7.072c0.616,1.729,3.103,7.845,9.238,13.98
		c5.914,5.913,11.053,7.793,12.986,8.328l7.113-7.113c0.623-0.623,1.633-0.623,2.256,0l13.541,13.54
		c0.299,0.299,0.467,0.705,0.467,1.128S79.859,69.09,79.561,69.389z"/>
        </g>
    </symbol>

    <symbol id="left-arrow" viewBox="0 0 512 512">
        <g>
            <path d="M472.747,190.933H233.814l46.08-46.08c15.36-15.36,15.36-40.96,0-56.32l-35.84-37.547c-15.36-15.36-40.96-15.36-56.32,0
			L11.947,226.772C5.12,235.306,0,245.546,0,255.786c0,11.947,3.413,22.186,11.947,30.72l175.787,174.08
			c6.827,6.827,17.067,11.947,29.013,11.947c10.24,0,20.48-3.413,27.307-11.947l35.84-35.84c15.36-15.36,15.36-40.96,0-56.32
			L230.4,320.64h242.347c22.186,0,39.253-18.774,39.253-40.96v-49.493C512,208,494.933,190.933,472.747,190.933z M479.573,279.68
			h-1.706c0,3.413-3.413,6.827-5.12,6.827H189.44c-6.827,0-13.653,3.413-15.36,10.24c-3.413,6.827-1.707,13.653,3.413,18.774
			l78.507,76.8c1.707,1.707,1.707,5.12,0,8.534l-35.84,35.84c-1.707,1.707-5.12,3.413-8.534,0L35.84,260.906
			c-1.706-1.706-1.706-3.413-1.706-5.119c0-1.706,0-3.413,1.706-5.12L211.627,74.88c1.707-1.706,3.413-1.706,3.413-1.706
			c1.707,0,3.413,0,3.413,1.706L256,110.719c1.707,1.706,1.707,6.827,0,8.533l-75.093,76.8c-5.12,5.12-6.827,11.946-3.413,18.774
			c3.413,6.827,8.534,10.24,15.36,10.24h281.6c1.706,0,5.12,0,5.12,3.413V279.68z"/>
        </g>
    </symbol>

    <symbol id="right-arrow" viewBox="0 0 512 512">
        <g>
            <path d="M501.306,226.7L326.791,52.183c-15.398-15.399-41.063-15.399-56.461,0L234.4,88.113
			c-6.844,6.844-11.976,17.109-11.976,27.375s3.422,20.531,11.976,27.375l47.906,47.906H41.063C18.821,190.769,0,209.59,0,231.832
			v49.617c0,20.531,18.82,37.641,41.063,37.641h239.532l-46.196,46.196c-6.844,6.844-11.976,17.109-11.976,29.086
			c0,10.266,3.422,20.531,11.976,29.086l35.93,35.93c6.844,6.844,17.109,11.977,27.375,11.977c10.266,0,20.531-3.422,27.375-11.977
			l174.516-174.517c8.555-8.555,11.977-18.821,11.977-29.086C513.283,245.52,509.861,235.255,501.306,226.7z M477.353,260.918
			L302.837,435.435c-3.422,3.422-5.132,3.422-8.555,0l-35.93-35.93c-1.711-1.711-1.711-3.422-1.711-5.132
			c0-1.711,0-3.422,1.711-5.132l75.281-75.281c5.132-5.132,6.844-11.977,3.422-18.821c-3.422-6.844-8.555-10.266-15.398-10.266
			H41.063c-3.422,0-6.844-1.711-6.844-3.422v-49.617c0-3.422,3.422-6.844,6.844-6.844h284.017c6.844,0,13.688-3.422,15.398-10.266
			c1.711-6.844,1.711-13.688-3.422-18.821l-76.992-76.992c-1.711-1.711-1.711-3.422-1.711-3.422c0-1.711,0-1.711,1.711-3.422
			l35.93-35.929c1.711-1.711,5.132-3.422,8.555,0l174.515,174.515c1.711,1.711,1.711,3.422,1.711,5.132
			C479.064,257.497,479.064,259.208,477.353,260.918z"/>
        </g>
    </symbol>

    <symbol id="play-link" viewBox="0 0 494.148 494.148">
        <g>
            <path d="M405.284,201.188L130.804,13.28C118.128,4.596,105.356,0,94.74,0C74.216,0,61.52,16.472,61.52,44.044v406.124
			c0,27.54,12.68,43.98,33.156,43.98c10.632,0,23.2-4.6,35.904-13.308l274.608-187.904c17.66-12.104,27.44-28.392,27.44-45.884
			C432.632,229.572,422.964,213.288,405.284,201.188z"/>
        </g>
    </symbol>
</svg>